<svg width="54" height="54" viewBox="0 0 54 54" fill="none" xmlns="http://www.w3.org/2000/svg">
<rect width="54" height="54" fill="#383838"/>
<path d="M18.3154 32.1406L22.6699 17.5156H26.9102L20.4736 36H17.6807L18.3154 32.1406ZM14.3037 17.5156L18.6455 32.1406L19.3057 36H16.4873L10.0889 17.5156H14.3037ZM39.1738 29.8682H42.9697C42.8936 31.1123 42.5508 32.2168 41.9414 33.1816C41.3405 34.1465 40.4984 34.8997 39.415 35.4414C38.3402 35.9831 37.0452 36.2539 35.5303 36.2539C34.3454 36.2539 33.2832 36.0508 32.3438 35.6445C31.4043 35.2298 30.6003 34.6374 29.9316 33.8672C29.2715 33.097 28.7679 32.166 28.4209 31.0742C28.0739 29.9824 27.9004 28.7594 27.9004 27.4053V26.123C27.9004 24.7689 28.0781 23.5459 28.4336 22.4541C28.7975 21.3538 29.3138 20.4186 29.9824 19.6484C30.6595 18.8783 31.4678 18.2858 32.4072 17.8711C33.3467 17.4564 34.3962 17.249 35.5557 17.249C37.096 17.249 38.3952 17.5283 39.4531 18.0869C40.5195 18.6455 41.3447 19.4157 41.9287 20.3975C42.5212 21.3792 42.8766 22.4964 42.9951 23.749H39.1865C39.1442 23.0042 38.9961 22.3737 38.7422 21.8574C38.4883 21.3327 38.1032 20.9391 37.5869 20.6768C37.0791 20.4059 36.402 20.2705 35.5557 20.2705C34.9209 20.2705 34.3665 20.389 33.8926 20.626C33.4186 20.863 33.0208 21.2227 32.6992 21.7051C32.3776 22.1875 32.1364 22.7969 31.9756 23.5332C31.8232 24.2611 31.7471 25.1159 31.7471 26.0977V27.4053C31.7471 28.3617 31.819 29.2038 31.9629 29.9316C32.1068 30.651 32.3268 31.2604 32.623 31.7598C32.9277 32.2507 33.3171 32.623 33.791 32.877C34.2734 33.1224 34.8532 33.2451 35.5303 33.2451C36.3258 33.2451 36.9818 33.1182 37.498 32.8643C38.0143 32.6104 38.4079 32.2337 38.6787 31.7344C38.958 31.235 39.123 30.613 39.1738 29.8682Z" fill="white"/>
</svg>
